<svg xmlns="http://www.w3.org/2000/svg" viewBox="0 0 100 100">
  <defs>
    <linearGradient id="grad" x1="0%" y1="0%" x2="100%" y2="100%">
      <stop offset="0%" stop-color="#2563eb" />
      <stop offset="100%" stop-color="#1d4ed8" />
    </linearGradient>
  </defs>
  <rect width="100" height="100" rx="20" fill="url(#grad)" />
  <path
    d="M30 28h40a4 4 0 014 4v36a4 4 0 01-4 4H30a4 4 0 01-4-4V32a4 4 0 014-4zm10 12a8 8 0 100 16 8 8 0 000-16zm20 4h14v-6H60v6zm0 12h14v-6H60v6zm-20-6a12 12 0 0112 12H28a12 12 0 0112-12z"
    fill="#fff"
  />
</svg>
